<svg width="16" height="16" viewBox="0 0 16 16" fill="none" xmlns="http://www.w3.org/2000/svg">
<path d="M15.9687 13.7132L14.6667 1.46331C14.6667 0.693154 14.07 0.0693665 13.3333 0.0693665H8H2.66667C1.93 0.0693665 1.33333 0.693154 1.33333 1.46331L0.0313333 13.7132C0.012 13.8087 0 13.907 0 14.0088C0 14.7789 0.596667 15.4027 1.33333 15.4027H8H14.6667C15.4033 15.4027 16 14.7789 16 14.0088C16 13.907 15.988 13.8087 15.9687 13.7132ZM11.3333 3.49009V4.25118C11.3333 6.17273 9.838 7.73603 8 7.73603C6.162 7.73603 4.66667 6.17273 4.66667 4.25118V3.49009C4.27933 3.34652 4 2.96318 4 2.50876C4 1.93167 4.448 1.46331 5 1.46331C5.552 1.46331 6 1.93167 6 2.50876V4.25118C6 5.40397 6.89733 6.34209 8 6.34209C9.10267 6.34209 10 5.40397 10 4.25118V2.50876C10 1.93167 10.448 1.46331 11 1.46331C11.552 1.46331 12 1.93167 12 2.50876C12 2.96318 11.7207 3.34652 11.3333 3.49009Z" fill="#F9F9F9"/>
</svg>
