<svg width="18" height="18" viewBox="0 0 18 18" fill="none" xmlns="http://www.w3.org/2000/svg">
<path d="M16.3929 7.39286H10.9286C10.7511 7.39286 10.6072 7.24894 10.6072 7.07143V1.60714C10.6072 0.719604 9.88755 0 9.00002 0C8.11248 0 7.39287 0.719604 7.39287 1.60714V7.07143C7.39287 7.24894 7.24895 7.39286 7.07144 7.39286H1.60716C0.71962 7.39286 1.52588e-05 8.11246 1.52588e-05 9C1.52588e-05 9.88754 0.71962 10.6071 1.60716 10.6071H7.07144C7.24895 10.6071 7.39287 10.7511 7.39287 10.9286V16.3929C7.39287 17.2804 8.11248 18 9.00002 18C9.88755 18 10.6072 17.2804 10.6072 16.3929V10.9286C10.6072 10.7511 10.7511 10.6071 10.9286 10.6071H16.3929C17.2804 10.6071 18 9.88754 18 9C18 8.11246 17.2804 7.39286 16.3929 7.39286Z" fill="white"/>
</svg>
